<svg width="24" height="24" viewBox="0 0 24 24" fill="none" xmlns="http://www.w3.org/2000/svg">
<path d="M9 11H7V13H9V11Z" fill="#3C3B39"/>
<path d="M13 11H11V13H13V11Z" fill="#3C3B39"/>
<path d="M17 11H15V13H17V11Z" fill="#3C3B39"/>
<path d="M9 15H7V17H9V15Z" fill="#3C3B39"/>
<path d="M13 15H11V17H13V15Z" fill="#3C3B39"/>
<path d="M17 15H15V17H17V15Z" fill="#3C3B39"/>
<path d="M21 5V4H17V3H15V4H9V3H7V4H3V5H2V21H3V22H21V21H22V5H21ZM20 19H19V20H5V19H4V7H5V6H7V8H9V6H15V8H17V7V6H19V7H20V19Z" fill="#3C3B39"/>
</svg>
